PathFileType	4	(x/y/z)	S10_PSF_T09
DataRate	CameraRate	NumFrames	NumMarkers	Units	OrigDataRate	OrigDataStartFrame	OrigNumFrames
240	240	7	51	mm	240	54	427
Frame#	Time	Sternum			R.Acromium			L.Acromium			Top.Head			R.ASIS			L.ASIS			R.PSIS			L.PSIS			R.Great.Tro			L.Great.Tro			R.Iliac.Crest			L.Iliac.Crest			V.Sacral			R.Thigh.Upper.Post			R.Thigh.Lower.Ant			R.Thigh.Lower.Post			R.Thigh.Upper.Ant			R.Knee.Lat			R.Knee.Med			R.Shank.Upper.Post			R.Shank.Lower.Ant			R.Shank.Lower.Post			R.Shank.Upper.Ant			R.Ankle.Lat			R.Ankle.Med			R.Heel.Upper			R.Heel.Med			R.Heel.Lat			R.Toe.Lat			R.Toe.Med			R.Toe.Tip			L.Thigh.Upper.Post			L.Thigh.Lower.Ant			L.Thigh.Lower.Post			L.Thigh.Upper.Ant			L.Knee.Lat			L.Knee.Med			L.Shank.Upper.Post			L.Shank.Lower.Ant			L.Shank.Lower.Post			L.Shank.Upper.Ant			L.Ankle.Lat			L.Ankle.Med			L.Heel.Upper			L.Heel.Med			L.Heel.Lat			L.Toe.Lat			L.Toe.Med			L.Toe.Tip			Cervical.Spine			Back			
		X1	Y1	Z1	X2	Y2	Z2	X3	Y3	Z3	X4	Y4	Z4	X5	Y5	Z5	X6	Y6	Z6	X7	Y7	Z7	X8	Y8	Z8	X9	Y9	Z9	X10	Y10	Z10	X11	Y11	Z11	X12	Y12	Z12	X13	Y13	Z13	X14	Y14	Z14	X15	Y15	Z15	X16	Y16	Z16	X17	Y17	Z17	X18	Y18	Z18	X19	Y19	Z19	X20	Y20	Z20	X21	Y21	Z21	X22	Y22	Z22	X23	Y23	Z23	X24	Y24	Z24	X25	Y25	Z25	X26	Y26	Z26	X27	Y27	Z27	X28	Y28	Z28	X29	Y29	Z29	X30	Y30	Z30	X31	Y31	Z31	X32	Y32	Z32	X33	Y33	Z33	X34	Y34	Z34	X35	Y35	Z35	X36	Y36	Z36	X37	Y37	Z37	X38	Y38	Z38	X39	Y39	Z39	X40	Y40	Z40	X41	Y41	Z41	X42	Y42	Z42	X43	Y43	Z43	X44	Y44	Z44	X45	Y45	Z45	X46	Y46	Z46	X47	Y47	Z47	X48	Y48	Z48	X49	Y49	Z49	X50	Y50	Z50	X51	Y51	Z51	

54	0.22083	-1149.2	1273.8	292.44	-1284.7	1427.3	435.66	-1266.2	1450.2	132.2	-1323.5	1746.6	301.71	-1206.2	1003	395.05	NaN	NaN	NaN	-1405.1	1019.8	291.26	-1394.6	1033.4	211.75	-1285	916.22	454.24	-1244.4	971.48	101.43	-1313.8	1076.4	434.19	-1266.7	1105.4	135.63	-1420.2	991.32	250.27	NaN	NaN	NaN	-1136.1	656.63	446.75	-1194.7	630.66	468.95	NaN	NaN	NaN	-1174	507.2	440.62	-1139.1	502.51	309.2	-1373.8	405.15	408.64	-1374.8	315.11	411.54	-1423.5	355.45	401.03	-1311.5	360.35	421.46	-1486.4	265.13	384.3	-1458.2	256.29	307.75	-1538.5	285.19	320.47	-1552.8	261.74	292.25	-1569	277.14	350.51	-1511.4	123.92	424	NaN	NaN	NaN	NaN	NaN	NaN	-1246.2	683.84	116.32	-1162	616.85	148.85	-1236.5	592.19	143.23	NaN	NaN	NaN	-1193.4	511.39	163.79	-1190.7	518.13	291.91	-1270.7	303.21	160.4	-1214.7	211.12	185.58	-1277.2	225.18	172.82	-1208.9	286.93	172.89	-1267.1	108	186.48	-1255.2	115.8	276.52	-1337.2	78.434	233.28	-1324.8	45.845	265.88	-1332.2	50.159	200.69	-1156.4	43.306	163.56	-1127.2	46.274	272.36	-1073.4	56.228	223.47	-1359.8	1494.5	290.44	-1437.1	1284.9	270.76
55	0.225	-1144.4	1275	292.75	-1280.2	1428.1	435.69	-1260.6	1451.4	132.39	-1318.1	1747.7	302.08	-1201.3	1004.3	394.73	NaN	NaN	NaN	-1400.2	1020.8	291.4	-1389.7	1034.2	211.85	-1279.6	917.87	454.6	-1240.3	971.88	101.24	-1308.8	1077.9	433.99	-1261.8	1106	135.3	-1415.4	992.28	250.52	-1206.8	723.88	479.96	-1127.7	659.72	446.56	-1185.9	633.05	469.7	NaN	NaN	NaN	-1164.5	509.47	441.03	-1129.3	505.41	309.57	-1362.8	404.58	408.74	-1362.4	314.46	411.67	-1411.9	354.1	401.12	-1300.1	360.79	421.63	-1473.3	262.7	384.27	-1445.5	254.24	308.04	-1527	281.06	320.31	-1540.5	257.03	292.26	-1557	272.31	350.45	-1494.5	121.47	425.07	NaN	NaN	NaN	NaN	NaN	NaN	-1244	684.42	116.52	-1160.1	616.8	148.44	-1235	592.69	143.38	NaN	NaN	NaN	-1192.4	511.47	163.55	-1189.7	518.01	291.73	-1270.3	303.48	160.3	-1214.5	211.16	185.49	-1276.7	225.54	172.68	-1208.6	286.97	172.8	-1267	108.02	186.47	-1255.1	115.83	276.35	-1337.2	78.596	233.25	-1325.4	46.064	265.71	-1332.1	50.246	200.7	-1156.3	43.286	163.55	-1127.1	46.254	272.33	-1073.4	56.134	223.46	-1354.7	1495.4	290.22	-1432.1	1285.9	270
56	0.22917	-1139.6	1276.2	293.02	-1275.7	1428.9	435.71	-1254.9	1452.7	132.57	-1312.6	1748.7	302.47	-1196.5	1005.5	394.41	NaN	NaN	NaN	-1395.4	1021.8	291.57	-1384.9	1035	211.98	-1274.1	919.51	454.99	-1236.2	972.25	101.04	-1303.9	1079.2	433.8	-1257	1106.5	134.97	-1410.6	993.2	250.8	-1200.5	725.34	479.21	-1119.4	662.78	446.37	-1177.3	635.44	470.43	NaN	NaN	NaN	-1155	511.73	441.41	-1119.7	508.32	309.92	-1351.6	403.87	408.86	-1350	313.66	411.79	-1400.3	352.55	401.23	-1288.8	361.11	421.79	-1460.2	260.09	384.26	-1432.6	252.03	308.33	-1515.3	276.69	320.19	-1528.1	252.1	292.3	-1544.8	267.22	350.44	-1477.5	118.91	426.12	NaN	NaN	NaN	NaN	NaN	NaN	-1241.8	685	116.73	-1158.1	616.75	148.04	-1233.6	593.2	143.53	NaN	NaN	NaN	-1191.5	511.55	163.31	-1188.7	517.87	291.54	-1269.9	303.75	160.21	-1214.4	211.2	185.4	-1276.3	225.91	172.55	-1208.3	287.02	172.69	-1266.9	108.05	186.46	-1255	115.85	276.15	-1337.3	78.755	233.23	-1325.9	46.262	265.55	-1332.1	50.335	200.71	-1156.3	43.268	163.54	-1127	46.219	272.29	-1073.4	56.039	223.47	-1349.6	1496.2	290.01	-1427.1	1286.9	269.26
57	0.23333	-1134.8	1277.3	293.25	-1271.1	1429.7	435.73	-1249.3	1454	132.75	-1307.1	1749.6	302.86	-1191.6	1006.8	394.07	NaN	NaN	NaN	-1390.5	1022.8	291.75	-1380.1	1035.7	212.14	-1268.7	921.12	455.39	-1232.2	972.59	100.85	-1298.9	1080.6	433.61	-1252.2	1107.1	134.65	-1405.8	994.08	251.11	-1193.8	726.87	478.51	-1111.1	665.82	446.18	-1168.7	637.83	471.14	NaN	NaN	NaN	-1145.7	513.96	441.76	-1110.4	511.2	310.25	-1340.4	402.99	409.01	-1337.5	312.7	411.92	-1388.7	350.82	401.37	-1277.5	361.33	421.95	-1447	257.3	384.28	-1419.5	249.67	308.62	-1503.4	272.08	320.1	-1515.5	246.96	292.38	-1532.3	261.88	350.49	-1460.3	116.26	427.17	NaN	NaN	NaN	NaN	NaN	NaN	-1239.7	685.59	116.93	-1156.2	616.7	147.67	-1232.2	593.71	143.66	NaN	NaN	NaN	-1190.6	511.64	163.05	-1187.8	517.73	291.37	-1269.6	304.03	160.13	-1214.2	211.24	185.3	-1275.9	226.27	172.45	-1208	287.09	172.58	-1266.8	108.08	186.46	-1255	115.84	275.92	-1337.3	78.913	233.22	-1326.3	46.437	265.41	-1332.1	50.425	200.72	-1156.3	43.25	163.53	-1127	46.169	272.25	-1073.3	55.942	223.47	-1344.4	1497	289.81	-1422.1	1287.8	268.56
58	0.2375	-1130.1	1278.4	293.42	-1266.6	1430.5	435.74	-1243.8	1455.2	132.94	-1301.7	1750.6	303.27	-1186.7	1007.9	393.74	NaN	NaN	NaN	-1385.6	1023.8	291.96	-1375.2	1036.4	212.31	-1263.3	922.71	455.8	-1228.1	972.91	100.66	-1293.9	1081.9	433.42	-1247.4	1107.6	134.34	-1401	994.92	251.43	-1187	728.47	477.86	-1103	668.81	445.99	-1160.1	640.21	471.82	NaN	NaN	NaN	-1136.5	516.18	442.07	-1101.2	514.07	310.57	-1329.2	401.95	409.17	-1324.9	311.59	412.04	-1377	348.9	401.54	-1266.2	361.43	422.11	-1433.7	254.33	384.33	-1406.3	247.15	308.92	-1491.4	267.25	320.06	-1502.6	241.62	292.49	-1519.7	256.31	350.6	-1443	113.53	428.2	NaN	NaN	NaN	NaN	NaN	NaN	-1237.5	686.18	117.13	-1154.4	616.64	147.33	-1230.7	594.23	143.77	NaN	NaN	NaN	-1189.7	511.72	162.78	-1187	517.58	291.18	-1269.2	304.31	160.04	-1214.2	211.28	185.2	-1275.5	226.64	172.36	-1207.7	287.17	172.45	-1266.8	108.12	186.47	-1254.9	115.82	275.65	-1337.4	79.068	233.21	-1326.7	46.591	265.29	-1332	50.517	200.74	-1156.3	43.233	163.52	-1127	46.105	272.21	-1073.3	55.844	223.48	-1339.2	1497.8	289.61	-1417.1	1288.7	267.88
59	0.24167	-1125.3	1279.5	293.56	-1262	1431.2	435.76	-1238.2	1456.4	133.13	-1296.2	1751.5	303.68	-1181.9	1009.1	393.4	NaN	NaN	NaN	-1380.8	1024.7	292.18	-1370.4	1037.1	212.5	-1257.8	924.27	456.21	-1224.1	973.21	100.49	-1288.9	1083.2	433.24	-1242.6	1108	134.04	-1396.1	995.7	251.76	-1179.9	730.13	477.29	-1095	671.75	445.79	-1151.7	642.56	472.46	NaN	NaN	NaN	-1127.5	518.36	442.36	-1092.4	516.89	310.87	-1317.9	400.75	409.36	-1312.3	310.35	412.17	-1365.2	346.8	401.74	-1254.9	361.43	422.28	-1420.3	251.21	384.42	-1393	244.49	309.23	-1479.1	262.21	320.07	-1489.6	236.1	292.65	-1506.8	250.52	350.77	-1425.7	110.73	429.22	NaN	NaN	NaN	-1337.7	56.072	384.19	-1235.3	686.77	117.32	-1152.5	616.57	147.04	-1229.3	594.75	143.87	NaN	NaN	NaN	-1188.9	511.81	162.5	-1186.1	517.44	290.99	-1268.9	304.6	159.96	-1214.1	211.33	185.1	-1275.2	227	172.29	-1207.4	287.26	172.3	-1266.7	108.16	186.48	-1254.8	115.78	275.36	-1337.4	79.222	233.21	-1327	46.726	265.19	-1332	50.613	200.76	-1156.3	43.217	163.52	-1127	46.027	272.17	-1073.3	55.742	223.5	-1334	1498.5	289.43	-1412.1	1289.6	267.24
60	0.24583	-1120.6	1280.6	293.66	-1257.4	1431.9	435.77	-1232.7	1457.6	133.32	-1290.7	1752.3	304.1	-1177.1	1010.2	393.07	NaN	NaN	NaN	-1375.9	1025.5	292.41	-1365.6	1037.7	212.7	-1252.4	925.78	456.63	-1220	973.47	100.33	-1283.9	1084.5	433.06	-1237.9	1108.5	133.76	-1391.3	996.44	252.1	-1172.7	731.83	476.81	-1087	674.64	445.59	-1143.3	644.89	473.07	NaN	NaN	NaN	-1118.5	520.51	442.62	-1083.7	519.67	311.16	-1306.7	399.39	409.57	-1299.6	308.98	412.31	-1353.4	344.52	401.97	-1243.6	361.31	422.45	-1406.9	247.92	384.54	-1379.4	241.7	309.55	-1466.7	256.97	320.12	-1476.4	230.4	292.84	-1493.7	244.52	350.99	-1408.2	107.86	430.24	NaN	NaN	NaN	-1321.5	55.278	385.6	-1233.1	687.37	117.51	-1150.7	616.49	146.78	-1227.9	595.27	143.95	NaN	NaN	NaN	-1188.1	511.89	162.21	-1185.3	517.3	290.79	-1268.6	304.88	159.88	-1214.1	211.38	184.99	-1274.9	227.36	172.24	-1207.2	287.36	172.15	-1266.7	108.2	186.51	-1254.8	115.73	275.03	-1337.5	79.373	233.21	-1327.2	46.844	265.12	-1332	50.71	200.79	-1156.3	43.202	163.51	-1127	45.938	272.14	-1073.3	55.638	223.52	-1328.7	1499.2	289.26	-1407.1	1290.4	266.63
